<?xml version="1.0" encoding="UTF-8" standalone="no"?>
<!-- Created with Inkscape (http://www.inkscape.org/) -->

<svg
   xmlns:dc="http://purl.org/dc/elements/1.1/"
   xmlns:cc="http://creativecommons.org/ns#"
   xmlns:rdf="http://www.w3.org/1999/02/22-rdf-syntax-ns#"
   xmlns:svg="http://www.w3.org/2000/svg"
   xmlns="http://www.w3.org/2000/svg"
   xmlns:xlink="http://www.w3.org/1999/xlink"
   xmlns:sodipodi="http://sodipodi.sourceforge.net/DTD/sodipodi-0.dtd"
   xmlns:inkscape="http://www.inkscape.org/namespaces/inkscape"
   width="374"
   height="329"
   id="svg2"
   version="1.1"
   inkscape:version="0.47 r22583">
  <g
     inkscape:label="Layer 1"
     inkscape:groupmode="layer"
     id="layer1"
     transform="translate(-365.218,-245.09184)">
    <path
       id="path5055"
       d="m 409.36536,542.07251 c -1.58736,2.67417 -2.6471,6.06083 -5.33028,8.47795 -4.78914,4.51857 -11.20171,8.52755 -18.12838,5.33028 -2.15105,-1.07327 -3.73841,-2.92669 -5.08676,-5.33028 -2.67417,1.33934 -6.68315,1.8399 -9.34378,0.51409 -5.34833,-2.66965 -6.66962,-8.7846 -6.15553,-14.68759 1.08229,-7.70231 3.75194,-14.93562 9.06418,-21.04605 2.41712,-2.97631 5.36185,-5.07324 8.54559,-6.16906 0.30665,0 1.07778,0 1.07778,0.51408 l -0.25253,0.82074 c -9.10026,8.52755 -13.61432,19.76985 -12.84319,32.30188 0.27959,2.41712 1.3213,5.07324 4.00448,6.15553 1.64147,0.26156 3.48137,0 4.82972,-1.08229 -1.08229,-5.07324 -2.16909,-11.49483 -0.51859,-16.52298 l 6.11945,0.24352 c -0.76662,3.4498 -1.10033,7.19272 -1.10033,10.68762 0.33371,0.5186 0,1.07778 0.33371,1.33032 2.08792,-2.40359 3.43627,-5.08226 4.50954,-7.76093 0.80721,-3.47686 1.82186,-7.73838 -0.26606,-10.92663 -0.55918,-0.25704 -1.07327,0 -1.32581,0.5186 -1.09582,1.90303 -1.89852,3.99997 -2.15105,6.15102 l -6.11945,-0.24352 c 0.7576,-2.67416 2.35849,-5.35283 5.35283,-7.24233 2.08792,-1.33933 5.31675,-2.66514 7.67524,-1.33933 3.25139,2.40809 3.25139,6.67413 2.67417,10.6786 -0.77565,5.60086 -4.75758,10.16452 -9.33026,14.17351 0.30665,1.33482 1.63246,2.67867 2.66515,3.19726 3.22883,1.57384 6.66511,-0.26606 9.08222,-2.11497 7.48585,-6.9898 9.37084,-16.58611 8.84773,-26.43947 -1.09131,-6.68766 -3.48588,-13.10023 -8.84773,-17.62331 l 0.27058,-0.82976 c 1.90302,0 3.23785,1.60089 4.54562,2.42614 9.87139,8.52304 12.04049,23.45866 7.45428,35.22407 l -0.25254,0.61329"
       style="fill:#000000;fill-rule:nonzero;stroke:none" />
    <path
       id="path5057"
       d="m 412.19285,542.22133 c 1.34835,-1.84441 2.14654,-3.99997 3.2153,-6.10593 1.34836,-2.40809 2.94023,-4.56817 4.78463,-6.92666 0,-0.57271 0.25254,-1.07778 0.82525,-1.33933 0.76662,-0.29313 1.84891,0 2.11498,1.02817 1.06876,3.4949 2.15556,6.97176 2.67867,10.42607 l -4.02703,0.5637 c 0,-1.0823 -0.24802,-2.41261 -0.76662,-3.49039 -1.07327,1.59187 -1.89852,3.49039 -2.66965,5.58733 1.07327,0 2.4081,0 3.43627,-0.25254 0,-0.50507 0,-1.06876 0,-1.8444 l 4.02703,-0.5637 c 0.79368,4.26152 1.06425,8.82969 1.06425,13.08671 0,0.82975 -0.27057,1.59187 -0.76662,1.86244 -1.6505,-0.77564 -3.24237,-2.11047 -3.24237,-4.01801 l -0.24802,-2.92669 -6.41709,0 -2.43966,7.24684 c -0.77113,0.51409 -1.82637,0.51409 -2.363,0.25253 -1.62795,-0.82524 -1.3213,-2.66514 -1.88499,-3.99095 0.25704,-1.91655 1.0868,-3.50842 1.88499,-5.35283 -0.55468,-0.5682 -1.3213,-2.41711 -1.88499,-3.24236 0.82975,0 2.15556,0 2.67867,0"
       style="fill:#000000;fill-rule:nonzero;stroke:none" />
    <path
       id="path5059"
       d="m 434.63235,528.36349 c 1.32581,1.84892 0.50507,4.51857 0,6.67864 -1.09582,3.74292 -1.89852,6.92216 -2.1736,10.94016 0.83877,1.0868 2.1736,0 2.92669,0 1.91205,-0.5186 3.50392,-1.85342 5.35284,-1.85342 0.57271,0.50958 0.57271,1.60089 0.31115,2.4126 -0.82975,2.9267 -4.01349,5.34833 -6.68314,6.11044 -1.32581,0.26606 -2.41712,0 -3.74744,-0.50958 -4.26152,-3.74743 -1.90302,-10.68311 -0.82975,-15.25128 l 1.60089,-5.60086 c 0.80721,-1.07778 1.65049,-2.9267 3.24236,-2.9267"
       style="fill:#000000;fill-rule:nonzero;stroke:none" />
    <path
       id="path5061"
       d="m 454.57807,538.22136 c -1.32129,0.56369 -2.66965,0.56369 -3.99095,0.30665 l -0.51859,0.5186 c -1.07328,6.16906 -1.33934,12.84319 -0.54115,19.20616 -0.27959,0.55918 -0.79819,0.82524 -1.35737,1.07327 -1.84892,0.25253 -3.18374,-1.57834 -4.27054,-3.17472 -1.56481,-5.60086 -0.76663,-12.28401 1.0868,-17.62331 l 0.49154,-1.07327 c -2.34497,-1.33934 -6.07887,-2.41261 -6.90863,-5.90751 0,-1.33482 0.82976,-2.35849 1.58736,-3.18374 0.58174,0.25254 0,1.07779 0.58174,1.59638 1.83989,1.89852 4.50954,2.66965 6.91313,3.24237 1.87597,-2.43065 4.5366,-4.83875 7.75191,-4.0135 2.39908,0.77113 2.39908,3.44078 2.93571,5.59184 -0.239,1.06876 -1.33933,2.11047 -2.41711,2.92669 -0.5186,0.26156 -1.07327,0.51409 -1.34385,0.51409 l -1.32129,-5.01912 1.32129,0 c 0.57723,-0.32018 1.34385,-0.82976 1.10033,-1.65501 -0.27508,-0.50507 -1.34835,-0.25704 -1.59187,-0.25704 -1.10033,0.25704 -1.89852,1.33933 -2.17811,2.15556 l 1.34836,-0.24351 1.32129,5.01912"
       style="fill:#000000;fill-rule:nonzero;stroke:none" />
    <path
       id="path5063"
       d="m 469.20704,537.96883 c -1.8444,0.25253 -4.00899,0.55918 -5.60536,1.33482 -0.76212,0 -1.8399,0.82074 -1.59638,1.90303 3.19275,4.25701 8.00895,6.92666 12.84769,8.52755 0,-4.27054 0.52311,-8.27501 0.52311,-12.53654 -2.15556,0.25705 -4.25701,0.25705 -6.16906,0.77114 l -1.8444,-3.43628 c 2.65161,-1.0868 5.34381,-1.65049 8.01346,-2.16007 0.49605,-4.00899 0.25253,-8.266 2.14654,-11.50836 1.84441,0.57722 2.67417,2.41712 2.94023,4.31112 l 0.24351,6.37199 0.52311,0.31116 c 6.15553,-0.31116 12.82966,0.25705 17.65938,4.51857 0.77565,1.07778 1.34836,2.40809 1.02367,3.99996 -0.50507,1.58737 -2.363,2.9267 -3.68881,3.75195 -1.09131,0 -2.41711,-0.26156 -3.24687,-0.5637 -0.24803,-1.34384 1.34835,-1.34384 1.89852,-2.35849 0.25704,-0.31567 0.77113,-0.82976 0.77113,-1.33933 -3.99095,-2.16008 -8.52755,-2.41261 -13.08219,-2.9763 -0.77114,0 -1.33483,-0.24803 -1.85794,0.30664 0,5.34833 0,9.34378 0.25705,14.38546 8.27051,1.63696 17.60527,1.06876 24.31096,-4.27505 3.46784,-2.66965 3.98193,-7.7474 2.6426,-11.74737 -4.248,-10.69213 -15.45873,-16.53651 -25.35267,-20.54549 -8.28855,-3.19276 -17.88035,-4.82973 -27.48118,-3.19276 -0.56369,0.26606 -1.3258,0.26606 -1.57834,0.77564 0.76211,0.56369 2.10145,0 2.92219,1.08229 0.24351,0.82074 -1.08229,0.82074 -1.34385,1.07778 -1.57834,-0.25704 -3.47686,0 -4.24799,-1.33031 0.77113,-1.6054 1.3213,-3.75195 3.19276,-4.26603 17.09118,-5.35284 34.17785,1.33482 47.78315,10.68762 5.60086,4.50955 10.43058,10.1104 12.53203,16.52749 1.33032,6.16906 -1.06876,11.75638 -5.84888,15.51284 -7.75191,5.59183 -18.18249,6.36297 -27.53078,3.99094 -0.25705,1.0372 0,2.67868 -1.33032,3.19727 -0.76662,0 -1.85342,0.24803 -2.92218,0 -1.33483,-1.33031 -1.33483,-3.4994 -1.58736,-5.34832 -5.60086,-2.66514 -11.52189,-6.93568 -14.71014,-12.52301 -0.24352,-1.08229 0,-2.16007 0.76662,-2.98532 1.92557,-1.8444 4.018,-2.92218 6.18259,-3.68881 l 1.8444,3.43628"
       style="fill:#000000;fill-rule:nonzero;stroke:none" />
    <path
       id="path5065"
       d="m 519.78611,532.16504 c 1.59187,0 1.84441,1.84441 2.10596,3.17472 0.57722,5.91202 1.07778,11.76992 0.82976,17.91643 -0.82976,0.78466 -2.17361,1.09131 -3.18825,0.78466 -2.15106,-0.52311 -1.65501,-3.17923 -1.90303,-5.04167 0,-5.32578 0,-10.41705 0.82975,-15.49931 0.23901,-0.50958 0.51409,-1.33483 1.32581,-1.33483 z m -6.94019,-12.83868 c 0.50958,-0.76662 1.04621,-1.83989 1.8444,-2.66514 l 2.1691,1.89852 c -0.55017,0.50958 -1.06877,1.33032 -1.34385,1.8444 -0.28861,0.57723 -0.55467,1.59638 0,2.15557 1.59638,-2.15557 3.70685,-4.26152 5.60086,-6.16004 -0.56821,0 -1.06426,0 -1.58285,0.26155 -0.83427,0.56369 -1.90303,1.07778 -2.67416,1.89852 l -2.1691,-1.89852 c 1.87147,-1.85793 4.28407,-3.70234 6.68766,-4.26603 2.68318,-0.51409 5.60537,-0.77113 7.5084,0.56369 l 1.03268,1.32581 c 1.08229,-0.29763 1.88499,0.5186 2.66965,0.78015 1.63246,1.33483 1.30777,3.4949 0.79819,5.08226 -1.31679,2.41261 -3.46784,4.51857 -5.83535,6.16906 l -1.65049,-2.67416 c 0.82975,-0.31567 1.65049,-0.56369 2.15556,-1.08229 1.59638,-1.07327 3.18825,-2.66965 2.94473,-4.82071 -0.5186,-1.07778 -1.87146,-0.77113 -2.94473,-0.77113 -3.48588,1.02818 -6.67864,4.2525 -8.52304,7.44526 2.09694,0.25254 4.26152,0 6.36748,-0.77113 l 1.65049,2.67416 c -1.36188,0.76211 -2.41712,1.33483 -4.02252,1.8444 -2.15105,0.51409 -4.30661,0.24803 -6.41708,-0.26155 -0.25253,0.26155 -0.8027,1.85342 -1.59638,1.85342 -0.82525,0 -1.05523,-0.51408 -1.62344,-1.59187 0,-0.50957 0,-1.8444 0,-2.4126 -1.59187,-1.59187 -2.11497,-4.26152 -1.04621,-6.4216"
       style="fill:#000000;fill-rule:nonzero;stroke:none" />
    <path
       id="path5067"
       d="m 527.99799,548.13334 c 1.92107,2.16459 5.3348,1.0823 7.77446,1.0823 2.65162,-0.51409 6.15102,-1.0823 7.49938,-2.9267 -0.58173,-2.42163 -2.94474,-2.42163 -4.5817,-2.93121 -4.00899,-0.81171 -8.27051,-0.55918 -12.2795,-1.33482 -0.77564,-0.31116 -1.33031,-1.33934 -1.60088,-2.15556 0,-2.16008 0.82524,-4.01801 2.68318,-5.08677 5.31675,-2.92219 13.6053,-3.73842 19.45869,-1.33483 0.58173,0.5637 0,1.0868 0,1.59638 -1.02367,1.07327 -2.61103,1.07327 -4.26152,1.33483 -4.51857,0.56369 -9.60083,0.31116 -13.86235,2.15105 0,0.5186 1.09131,0.5186 1.59187,0.82525 5.08226,1.59187 12.27048,-0.82525 15.76087,4.51405 0.77113,2.16459 0.51859,5.34833 -0.55017,6.94921 -2.94022,3.22433 -7.70681,3.73842 -11.98186,3.22433 -3.22884,-0.82074 -6.43964,-2.41261 -7.49036,-5.64595 -0.25704,-1.32581 0.25253,-2.363 1.05072,-3.17923 2.38104,-1.85794 5.60086,-1.34836 8.79813,-1.0868 1.65049,0.25704 3.73841,1.0868 4.58621,1.60089 0,0.81171 0,1.8895 -3.75195,2.40358 -2.42162,0.26156 -5.87142,-2.91767 -8.51853,-1.33933 -0.57271,0.27508 -0.57271,1.07778 -0.32469,1.33933"
       style="fill:#000000;fill-rule:nonzero;stroke:none" />
    <path
       id="path5069"
       d="m 553.26498,534.00945 c 4.00899,3.75194 6.16455,8.53657 9.07772,12.53202 0.78466,0 0.27959,-0.77113 0.54114,-1.03268 0,-5.64144 -2.13301,-10.16903 -2.94022,-15.24227 0,-0.51409 -0.24802,-1.33482 0.25704,-1.59187 1.59187,0.25705 2.42163,1.84892 3.24237,2.67416 3.15668,4.50053 4.52307,10.1555 3.98644,16.01791 -0.55468,1.84892 -1.33934,4.26152 -3.49039,5.08226 -0.49605,0.50507 -1.59638,0.77113 -2.14655,0.25253 -4.00898,-3.17021 -5.3393,-8.00895 -8.00444,-12.01794 l -0.27508,0.82074 -0.77114,11.1972 c -0.27508,0.81623 -0.79818,1.58736 -1.31678,1.58736 -1.10033,0 -1.90303,-0.77113 -2.42163,-1.58736 -1.06876,-2.40358 -0.24802,-5.59183 -0.24802,-8.26599 0.49605,-3.49039 1.03268,-6.67413 2.66965,-9.59632 0.24802,-0.82975 1.0417,-1.33933 1.83989,-0.82975"
       style="fill:#000000;fill-rule:nonzero;stroke:none" />
    <path
       id="path5071"
       d="m 571.54668,540.43104 c 1.34385,0 1.34385,-1.64599 1.8399,-2.4081 l 0.57271,-1.60089 c -1.58736,-0.57271 -3.49039,-0.81172 -4.00899,-2.9763 0,-0.50958 1.10033,-0.24351 1.34385,-0.50958 4.50954,-0.51859 9.09575,-1.58736 13.61432,-1.34384 1.57383,0.82525 3.1657,2.16458 2.91767,4.018 -1.34384,1.07779 -3.43627,0.81172 -5.34381,1.07779 l -4.26152,0 -1.07327,3.17923 0.25253,0 c 2.15557,0 4.56817,-0.24803 6.41709,0.56369 0.57271,0.51409 0.26606,1.59187 0.26606,2.36751 -1.03719,1.06876 -2.92219,0.81172 -4.52758,0.81172 -1.33483,0.25704 -3.75195,-0.50958 -4.248,1.33933 l -0.82975,3.18374 0,0.30214 c 3.24687,-0.30214 6.40806,-1.64147 9.60533,-1.06876 0.55468,0.76662 1.07778,1.84892 0.82525,2.66514 -3.50843,2.66965 -7.5084,5.35283 -12.29303,4.52308 -1.88499,-0.77113 -3.21981,-2.9267 -3.48587,-5.08677 -0.25254,-2.9267 2.66063,-5.03265 1.33933,-8.00895 -0.27508,-0.77565 0.82525,-0.77565 1.07778,-1.02818"
       style="fill:#000000;fill-rule:nonzero;stroke:none" />
    <path
       id="path5073"
       d="m 600.81815,543.61027 c -1.34836,2.16007 -2.68318,4.26152 -3.76998,6.16455 2.42162,0 4.51856,-1.07327 6.43963,-2.66514 2.11498,-1.89401 3.19276,-4.56366 2.92218,-7.49036 -0.24802,-0.26606 -0.24802,-1.34384 -1.07327,-1.09131 -1.84891,1.64599 -3.18825,3.4949 -4.51856,5.08226 l -4.31564,-2.9267 c 2.40359,-2.66063 4.82071,-4.83423 7.76093,-6.41708 1.07327,-0.25704 2.14654,0 2.91317,0.82976 1.90303,2.40358 2.99434,5.33479 2.1736,8.51402 -1.34836,5.60537 -6.68315,10.6786 -12.01794,11.77442 l -3.18825,0.24803 c -1.90303,5.90751 -3.74292,12.01794 -4.84325,18.43502 -1.57835,0.25705 -3.49039,-1.59187 -4.23898,-3.17923 -0.58173,-1.33933 0,-2.98532 0,-4.31563 1.06876,-5.03265 2.09694,-10.37647 4.23898,-14.94464 -0.24803,-1.07778 -0.8027,-1.85342 -1.06877,-2.92669 -0.77564,-5.8579 2.1691,-10.67861 5.91202,-14.94464 0.5186,-0.55467 1.32581,-1.89852 2.09694,-1.59187 0.57271,4.77561 -4.248,8.00896 -4.76659,12.78456 0,0.82074 0,1.33934 0.26606,1.90303 1.57383,-1.90303 3.17021,-4.30661 4.76208,-6.16906 l 4.31564,2.9267"
       style="fill:#000000;fill-rule:nonzero;stroke:none" />
    <path
       id="path5075"
       d="m 621.43128,551.53354 c 2.89513,0 3.90978,-0.59075 3.90978,-3.57156 l 0,-16.51396 c 0,-2.9763 -1.01465,-3.56705 -3.90978,-3.56705 l 0,-0.72153 9.63239,0 c 4.59072,0 11.0529,0.43743 11.0529,6.54787 0,5.26715 -5.04618,7.17468 -9.58278,7.17468 l -3.2559,0 0,7.07999 c 0,2.98081 1.01465,3.57156 3.92782,3.57156 l 0,0.72604 -11.77443,0 0,-0.72604 z m 7.84661,-12.00892 1.54227,0 c 3.81056,0 6.86804,-1.42502 6.86804,-5.7181 0,-3.37314 -2.26831,-5.29872 -5.56478,-5.29872 -2.73279,0 -2.84553,0.1398 -2.84553,2.72377 l 0,8.29305"
       style="fill:#000000;fill-rule:nonzero;stroke:none" />
    <path
       id="path5077"
       d="m 642.50439,536.46715 c 2.07439,-0.3292 4.13075,-1.09131 5.89398,-1.66853 l 0,14.29075 c 0,2.15105 0.77564,2.44417 2.68769,2.44417 l 0,0.72604 -8.58167,0 0,-0.72604 c 1.94362,0 2.68769,-0.29312 2.68769,-2.44417 l 0,-9.89395 c 0,-1.3709 -0.53663,-1.99773 -2.20968,-1.99773 l -0.47801,0 0,-0.73054 z m 4.18486,-10.22314 c 1.09582,0 1.96616,0.87936 1.96616,1.97067 0,1.08229 -0.87034,1.96616 -1.96616,1.96616 -1.09582,0 -1.95263,-0.88387 -1.95263,-1.96616 0,-1.09131 0.85681,-1.97067 1.95263,-1.97067"
       style="fill:#000000;fill-rule:nonzero;stroke:none" />
    <path
       id="path5079"
       d="m 665.82776,538.32057 c 0,1.1319 -0.76662,1.9346 -1.85793,1.9346 -1.20856,0 -1.90303,-1.17248 -1.90303,-2.29987 0,-1.26718 -1.26718,-1.81735 -2.45319,-1.81735 -3.36863,0 -4.74855,3.46784 -4.74855,6.30435 0,3.45431 1.82185,7.41369 5.75869,7.41369 2.29085,0 4.20741,-1.53324 5.20401,-3.46333 l 0.69898,0.40135 c -1.7993,3.60764 -3.76547,5.82633 -7.43624,5.82633 -2.35849,0 -7.19723,-1.30777 -7.19723,-9.09575 0,-4.83875 3.51744,-8.72597 8.44638,-8.72597 1.9391,0 5.48811,1.02817 5.48811,3.52195"
       style="fill:#000000;fill-rule:nonzero;stroke:none" />
    <path
       id="path5081"
       d="m 666.65752,536.24618 0,-0.50056 c 2.18262,-1.19954 4.06761,-3.31001 5.09579,-5.74967 l 0.72604,0 0,5.16794 4.02251,0 0,1.08229 -4.02251,0 0,11.31896 c 0,2.64711 1.05523,3.0214 1.93459,3.0214 0.81172,0 1.72716,-0.64938 2.26379,-1.2762 l 0.63585,0.40135 c -1.19503,1.55579 -2.47574,2.90865 -4.55464,2.90865 -3.10708,0 -3.48588,-2.43064 -3.48588,-5.02363 l 0,-11.35053 -2.61554,0"
       style="fill:#000000;fill-rule:nonzero;stroke:none" />
    <path
       id="path5083"
       d="m 693.6697,548.5843 c 0,1.49266 1.26719,1.67304 2.63358,1.71363 l 0,0.72603 c -1.90303,0.45998 -3.8241,0.9425 -5.5738,1.59638 l -0.14882,0 0,-2.98532 c -1.5603,1.53325 -3.01237,2.98532 -5.37538,2.98532 -2.94022,0 -4.97402,-1.49717 -4.97402,-4.50954 l 0,-10.28628 c 0,-1.74519 -1.42953,-1.9391 -2.6426,-1.9391 l 0,-0.72153 5.82183,-0.36527 0,12.13969 c 0,1.96166 1.02817,3.41824 3.17923,3.41824 1.87597,0 3.42725,-1.45658 3.8737,-2.28183 l 0,-10.2502 c 0,-1.74519 -1.416,-1.9391 -2.60652,-1.9391 l 0,-0.72153 5.8128,-0.36527 0,13.78568"
       style="fill:#000000;fill-rule:nonzero;stroke:none" />
    <path
       id="path5085"
       d="m 696.72267,551.53354 c 2.75984,-0.14881 2.85905,-0.65388 2.85905,-3.3551 l 0,-7.97288 c 0,-2.61103 -0.31116,-2.93571 -2.85905,-2.93571 l 0,-0.72153 c 2.00223,-0.5186 4.03153,-1.09582 5.89397,-1.7497 l 0.17588,0 0,3.22883 c 1.05974,-1.15444 2.78239,-3.22883 4.54562,-3.22883 1.09131,0 2.15105,0.65388 2.15105,1.85342 0,0.94249 -0.84779,1.63696 -1.74519,1.63696 -0.58173,0 -0.9425,-0.26155 -1.24915,-0.50957 -0.27057,-0.25254 -0.53663,-0.50958 -0.96053,-0.50958 -1.30326,0 -2.7418,2.33594 -2.7418,2.5028 l 0,8.47794 c 0,2.87258 0.41487,3.28295 3.08903,3.28295 l 0,0.72604 -9.15888,0 0,-0.72604"
       style="fill:#000000;fill-rule:nonzero;stroke:none" />
    <path
       id="path5087"
       d="m 713.15996,541.7343 0,0.48703 c 0,4.06761 1.90303,7.63466 5.85339,7.63466 3.16119,0 5.06873,-1.92107 6.30435,-3.82409 l 0.60428,0.40585 c -1.39796,3.00787 -4.10369,6.18259 -7.73387,6.18259 -4.90639,0 -7.77446,-3.53097 -7.77446,-8.25698 0,-4.83874 2.71925,-9.56474 8.02248,-9.56474 3.95036,0 6.56139,3.0259 6.58845,6.93568 l -11.86462,0 z m 8.3607,-1.08229 c 0,-2.65613 -0.92446,-4.76659 -3.90527,-4.76659 -2.42162,0 -4.33367,2.47574 -4.37877,4.76659 l 8.28404,0"
       style="fill:#000000;fill-rule:nonzero;stroke:none" />
    <path
       id="path5089"
       d="m 737.63778,539.96656 -0.64938,0 c -0.69898,-2.23223 -1.71362,-4.08114 -4.32465,-4.08114 -1.45658,0 -2.76886,0.76662 -2.76886,2.18713 0,3.78351 9.01007,3.99996 9.01007,9.3077 0,3.41824 -2.57495,5.24009 -5.29872,5.24009 -1.9391,0 -3.97291,-0.86583 -4.59522,-0.86583 -0.48703,0 -0.41939,0.25253 -0.48703,0.50507 l -0.71702,0 -0.2841,-5.71811 0.87485,0 c 0.0812,2.5479 2.17811,4.99207 4.84325,4.99207 1.57834,0 3.13414,-0.84779 3.13414,-2.54338 0,-4.15329 -9.01459,-4.07663 -9.01459,-9.67749 0,-2.98532 2.63358,-4.51405 5.37538,-4.51405 0.62232,0 1.19503,0.14881 1.76774,0.29763 0.5637,0.1443 1.13641,0.27959 1.63697,0.27959 0.40135,0 0.66741,-0.13529 0.74858,-0.57722 l 0.62683,0 0.12176,5.16794"
       style="fill:#000000;fill-rule:nonzero;stroke:none" />
    <path
       id="path5091"
       stroke-miterlimit="4"
       d="m 738.30068,489.76178 c 0,-104.37345 -82.64645,-192.02099 -184.53063,-192.02099 -101.88869,0 -184.50808,86.89445 -184.50808,191.25437"
       style="fill:none;stroke:#000000;stroke-width:1.83087575;stroke-linecap:butt;stroke-linejoin:miter;stroke-miterlimit:4" />
    <path
       id="path5093"
       d="m 591.89826,490.21724 -0.29312,-11.44974 93.85268,0 c 0,0 0,0.77565 0.78917,4.96952 0.78466,4.18486 1.60991,6.48022 1.60991,6.48022 l -95.95864,0"
       style="fill:#000000;fill-rule:nonzero;stroke:none" />
    <path
       id="path5095"
       d="m 588.77766,467.3313 c 0,0 -0.56369,-1.56933 -2.08792,-4.46896 -1.60991,-3.05748 -2.82749,-5.06423 -2.82749,-5.06423 l 100.36446,0 0,9.53319 -95.44905,0"
       style="fill:#000000;fill-rule:nonzero;stroke:none" />
    <path
       id="path5097"
       d="m 695.37882,449.01803 c 0,0 -3.31902,-3.04845 -5.74065,-6.10142 -2.39908,-3.05747 -4.40132,-5.3393 -4.40132,-5.3393 l -263.14104,0 c 0,0 -1.05523,2.62005 -3.40471,5.3393 -2.81846,3.24237 -5.42498,6.10142 -5.42498,6.10142 l 121.04524,0 c 0,0 8.60421,-8.12169 21.05056,-8.00896 12.45988,0.10372 20.0765,8.00896 20.0765,8.00896 l 119.9404,0"
       style="fill:#000000;fill-rule:nonzero;stroke:none" />
    <path
       id="path5099"
       d="m 521.64404,467.3313 c 0,0 0.61781,-1.34836 1.80833,-4.0135 1.20856,-2.65612 3.01238,-5.51969 3.01238,-5.51969 l -102.77707,0 0,9.53319 97.95636,0"
       style="fill:#000000;fill-rule:nonzero;stroke:none" />
    <path
       id="path5101"
       d="m 518.62716,478.7675 -0.99661,11.83756 -99.14688,0 c 0,0 1.38443,-3.10707 2.21418,-5.91201 1.18601,-4.20741 1.39796,-5.92555 1.39796,-5.92555 l 96.53135,0"
       style="fill:#000000;fill-rule:nonzero;stroke:none" />
    <path
       id="path5103"
       d="m 527.26745,409.34304 128.87381,0"
       style="fill:#000000;fill-rule:nonzero;stroke:none" />
    <path
       id="path5105"
       d="m 427.5208,431.08807 18.26366,0 c 0,0 -3.41824,-5.92103 -4.42838,-8.77557 -1.00563,-2.86808 -2.40358,-7.63016 -2.40358,-7.63016 l -5.0056,0 c 0,0 -0.81172,3.44079 -2.42614,7.43625 -1.58285,3.99996 -3.99996,8.96948 -3.99996,8.96948"
       style="fill:#000000;fill-rule:nonzero;stroke:none" />
    <path
       id="path5107"
       d="m 460.03462,431.08807 5.42048,-16.40573 193.98264,0 c 0,0 0.60879,1.04622 1.61442,2.57495 0.99661,1.51972 2.82297,4.48249 2.82297,4.48249 0,0 0.99661,-2.20066 1.70912,-4.19387 0.4735,-1.416 0.98308,-2.86357 0.98308,-2.86357 l 6.39905,0 c 0,0 0.88838,3.4002 3.04394,7.91877 2.16909,4.59522 4.41485,8.48696 4.41485,8.48696 l -220.39055,0"
       style="fill:#000000;fill-rule:nonzero;stroke:none" />
    <path
       id="path5109"
       d="m 636.85844,409.34304 19.37301,0 c 0,0 -1.70912,-3.43176 -3.29648,-7.44526 -1.62343,-4.00448 -2.42162,-7.05744 -2.42162,-7.05744 l -7.81956,0 c 0,0 -1.01465,3.43627 -2.41711,7.05744 -1.39796,3.62117 -3.41824,7.44526 -3.41824,7.44526"
       style="fill:#000000;fill-rule:nonzero;stroke:none" />
    <path
       id="path5111"
       d="m 644.28566,388.5405 4.63582,0 -2.41712,-10.10138 -2.2187,10.10138"
       style="fill:#000000;fill-rule:nonzero;stroke:none" />
    <path
       id="path5113"
       d="m 668.07352,409.91575 3.62116,0 -1.91204,-6.87255 -1.70912,6.87255"
       style="fill:#000000;fill-rule:nonzero;stroke:none" />
    <path
       id="path5115"
       d="m 670.1885,396.17968 0,-3.04395 -9.43397,1.70461 9.43397,1.33934"
       style="fill:#000000;fill-rule:nonzero;stroke:none" />
    <path
       id="path5117"
       d="m 462.33449,394.45703 35.5217,0 -1.47913,3.81958 -2.01577,0 0,5.3348 3.61215,3.43627 c 0,0 2.40358,-1.90303 5.0101,-6.10592 2.61554,-4.19388 3.61215,-6.48473 3.61215,-6.48473 l 116.61235,0 c 0,0 -0.38782,0.76211 2.01577,5.72261 2.42163,4.96501 6.00672,9.1634 6.00672,9.1634 l -166.47441,0 1.80833,-5.73163 -0.0992,-5.24911 -2.51633,0 -1.61442,-3.90527"
       style="fill:#000000;fill-rule:nonzero;stroke:none" />
    <path
       id="path5119"
       d="m 509.20221,388.35561 c 0,0 1.41599,-2.85454 2.4126,-6.86804 1.00563,-4.00898 2.4081,-8.58617 2.4081,-8.58617 0,0 1.00112,4.3923 2.40359,8.58617 1.416,4.19388 2.60201,6.86804 2.60201,6.86804 l -9.8263,0"
       style="fill:#000000;fill-rule:nonzero;stroke:none" />
    <path
       id="path5121"
       d="m 527.67331,388.35561 c 0,0 2.20968,-3.04845 2.20968,-8.77557 0,-5.72262 -2.20968,-9.15438 -2.20968,-9.15438 l 71.65218,0 c 0,0 0.82975,2.08341 3.01688,7.81955 2.41712,6.29082 4.41485,10.1104 4.41485,10.1104 l -79.08391,0"
       style="fill:#000000;fill-rule:nonzero;stroke:none" />
    <path
       id="path5123"
       d="m 613.16979,388.35561 10.44411,0 4.40583,-4.7711 c 0,0 -2.19615,-4.19388 -3.60313,-8.00444 -1.40247,-3.81959 -2.01126,-5.15441 -2.01126,-5.15441 l -9.42946,0 c 0,0 -1.19052,3.05296 -2.42613,6.29983 -1.18601,3.23335 -3.39118,6.85902 -3.39118,6.85902 l 6.01122,4.7711"
       style="fill:#000000;fill-rule:nonzero;stroke:none" />
    <path
       id="path5125"
       d="m 614.37384,365.55535 6.53434,0 -3.30099,-14.39447 -3.23335,14.39447"
       style="fill:#000000;fill-rule:nonzero;stroke:none" />
    <path
       id="path5127"
       d="m 646.30143,369.28023 0,-4.9605 -9.44299,2.29536 9.44299,2.66514"
       style="fill:#000000;fill-rule:nonzero;stroke:none" />
    <path
       id="path5129"
       d="m 617.60719,346.57918 0,-4.9605 -9.44299,2.29085 9.44299,2.66965"
       style="fill:#000000;fill-rule:nonzero;stroke:none" />
    <path
       id="path5131"
       d="m 524.84582,365.84847 73.47855,0 c 0,0 -2.41712,-7.63466 -2.60652,-12.41027 -0.21195,-4.75757 -0.21195,-8.76656 -0.21195,-8.76656 l -3.80155,-1.90754 0,-4.3923 -24.9423,-0.0406 -0.16234,4.43288 -3.01238,1.52423 0,3.24236 c 0,0 0.62683,2.66514 -2.79141,2.66514 -3.41823,0 -5.63242,-7.81053 -5.63242,-7.81053 l -5.81731,16.78002 c 0,0 -1.20405,3.43176 -5.0056,3.43176 -2.11047,0 -3.07551,-0.94249 -3.01689,-2.28183 0.0947,-2.19614 3.30099,-2.57495 3.30099,-2.57495 0,0 -1.29875,-2.01576 -3.52646,-7.16116 -2.17811,-5.14539 -3.69332,-12.40125 -3.69332,-12.40125 l -5.40695,0 c 0,0 -2.70573,9.5422 -3.9233,12.40125 -1.18601,2.85906 -3.60764,7.35056 -3.60764,7.35056 0,0 5.01462,-0.48252 5.01462,2.38555 0,1.70912 -1.80833,2.47575 -2.80494,2.28183 -1.02367,-0.18038 -5.12285,0.0992 -5.12285,0.0992 l 3.29197,3.15218"
       style="fill:#000000;fill-rule:nonzero;stroke:none" />
    <path
       id="path5133"
       d="m 533.20201,332.8431 2.71475,0 -1.30777,-6.48473 -1.40698,6.48473"
       style="fill:#000000;fill-rule:nonzero;stroke:none" />
    <path
       id="path5135"
       d="m 534.48723,319.49484 0,-4.96952 -9.42946,2.29536 9.42946,2.67416"
       style="fill:#000000;fill-rule:nonzero;stroke:none" />
    <path
       id="path5137"
       d="m 577.4587,250.04783 0,-4.95599 -9.4475,2.29536 9.4475,2.66063"
       style="fill:#000000;fill-rule:nonzero;stroke:none" />
    <path
       id="path5139"
       d="m 566.82068,333.0325 24.88367,0 0,-11.81952 4.41485,-1.53325 0,-4.00447 -4.41485,-1.70912 0,-10.68312 -24.88367,0 0,10.68312 -4.41936,1.51521 0,4.19838 4.61327,1.53325 -0.19391,11.81952"
       style="fill:#000000;fill-rule:nonzero;stroke:none" />
    <path
       id="path5141"
       d="m 479.50233,353.07292 0,-4.97403 -9.42946,2.29085 9.42946,2.68318"
       style="fill:#000000;fill-rule:nonzero;stroke:none" />
    <path
       id="path5143"
       d="m 465.25668,388.15719 28.89266,0 c 0,0 -4.41484,-6.66962 -6.62452,-10.49371 -2.18262,-3.80606 -3.60764,-7.42722 -3.60764,-7.42722 l -8.2209,0 c 0,0 -0.60879,1.13189 -4.21643,7.42722 -3.60313,6.29533 -6.22317,10.49371 -6.22317,10.49371"
       style="fill:#000000;fill-rule:nonzero;stroke:none" />
    <path
       id="path5145"
       d="m 477.29266,365.84847 4.6313,0 -2.22771,-5.90751 -2.40359,5.90751"
       style="fill:#000000;fill-rule:nonzero;stroke:none" />
    <path
       id="path5147"
       d="m 436.54891,399.61595 0,-4.97403 -9.44299,2.29987 9.44299,2.67416"
       style="fill:#000000;fill-rule:nonzero;stroke:none" />
    <path
       id="path5149"
       d="m 434.939,409.34304 3.2108,0 -1.60089,-3.63469 -1.60991,3.63469"
       style="fill:#000000;fill-rule:nonzero;stroke:none" />
    <path
       id="path5151"
       d="m 559.79931,299.08013 38.52506,0 c 0,0 -6.02025,-8.76656 -10.82291,-17.55567 -4.84326,-8.76655 -9.25359,-20.98292 -9.25359,-20.98292 0,0 -4.39681,10.69214 -9.24006,21.36623 -4.79365,10.6741 -9.2085,17.17236 -9.2085,17.17236"
       style="fill:#000000;fill-rule:nonzero;stroke:none" />
  </g>
</svg>
